<svg xmlns="http://www.w3.org/2000/svg" xmlns:xlink="http://www.w3.org/1999/xlink" width="500" zoomAndPan="magnify" viewBox="0 0 375 374.999991" height="500" preserveAspectRatio="xMidYMid meet" version="1.0"><defs><g/><clipPath id="669f29d46a"><path d="M 187.5 0 C 83.945312 0 0 83.945312 0 187.5 C 0 291.054688 83.945312 375 187.5 375 C 291.054688 375 375 291.054688 375 187.5 C 375 83.945312 291.054688 0 187.5 0 Z M 187.5 0 " clip-rule="nonzero"/></clipPath><clipPath id="c26b35206b"><path d="M 11.953125 6 L 362.953125 6 L 362.953125 369 L 11.953125 369 Z M 11.953125 6 " clip-rule="nonzero"/></clipPath></defs><g clip-path="url(#669f29d46a)"><rect x="-37.5" width="450" fill="#ffffff" y="-37.499999" height="449.999989" fill-opacity="1"/></g><g clip-path="url(#c26b35206b)"><path fill="#000000" d="M 143.347656 11.945312 C 190.71875 0.0351562 238.5625 8.023438 277.914062 30.742188 C 318.023438 53.898438 349.296875 92.355469 362.230469 140.628906 C 362.515625 141.691406 362.785156 142.761719 363.054688 143.824219 L 360.289062 144.792969 C 360.003906 143.65625 359.714844 142.519531 359.414062 141.382812 C 346.6875 93.886719 315.914062 56.046875 276.453125 33.261719 C 237.199219 10.597656 189.34375 2.835938 142.09375 15.28125 C 142.535156 14.179688 142.953125 13.066406 143.347656 11.945312 Z M 14.71875 230.757812 C 14.949219 231.6875 15.191406 232.617188 15.4375 233.546875 C 28.164062 281.039062 58.9375 318.878906 98.398438 341.664062 C 137.835938 364.4375 185.960938 372.167969 233.433594 359.46875 C 232.972656 360.574219 232.542969 361.691406 232.132812 362.824219 C 184.558594 374.964844 136.457031 367 96.9375 344.183594 C 56.828125 321.03125 25.554688 282.570312 12.621094 234.300781 C 12.394531 233.441406 12.171875 232.582031 11.953125 231.726562 Z M 14.71875 230.757812 " fill-opacity="1" fill-rule="evenodd"/></g><g fill="#000000" fill-opacity="1"><g transform="translate(31.033507, 197.290036)"><g><path d="M 25.234375 -2.375 C 24.503906 -1.78125 23.347656 -1.179688 21.765625 -0.578125 C 20.179688 0.015625 18.453125 0.3125 16.578125 0.3125 C 13.585938 0.3125 10.984375 -0.335938 8.765625 -1.640625 C 6.554688 -2.941406 4.867188 -4.6875 3.703125 -6.875 C 2.535156 -9.070312 1.953125 -11.488281 1.953125 -14.125 C 1.953125 -17.007812 2.535156 -19.582031 3.703125 -21.84375 C 4.867188 -24.101562 6.503906 -25.863281 8.609375 -27.125 C 10.722656 -28.382812 13.15625 -29.015625 15.90625 -29.015625 C 17.65625 -29.015625 19.269531 -28.78125 20.75 -28.3125 C 22.226562 -27.84375 23.523438 -27.257812 24.640625 -26.5625 L 22.421875 -21.21875 C 20.367188 -22.78125 18.265625 -23.5625 16.109375 -23.5625 C 14.648438 -23.5625 13.28125 -23.15625 12 -22.34375 C 10.726562 -21.539062 9.71875 -20.441406 8.96875 -19.046875 C 8.21875 -17.660156 7.84375 -16.125 7.84375 -14.4375 C 7.84375 -12.582031 8.191406 -10.957031 8.890625 -9.5625 C 9.585938 -8.175781 10.585938 -7.09375 11.890625 -6.3125 C 13.191406 -5.53125 14.710938 -5.140625 16.453125 -5.140625 C 17.859375 -5.140625 19.117188 -5.367188 20.234375 -5.828125 C 21.359375 -6.285156 22.242188 -6.828125 22.890625 -7.453125 Z M 25.234375 -2.375 "/></g></g></g><g fill="#000000" fill-opacity="1"><g transform="translate(89.408121, 197.290036)"><g><path d="M 9.359375 -28.703125 L 9.359375 -5.453125 L 22.859375 -5.453125 L 22.859375 0 L 3.703125 0 L 3.703125 -28.703125 Z M 9.359375 -28.703125 "/></g></g></g><g fill="#000000" fill-opacity="1"><g transform="translate(145.599398, 197.290036)"><g><path d="M 1.953125 -14.3125 C 1.953125 -16.914062 2.609375 -19.347656 3.921875 -21.609375 C 5.234375 -23.867188 7.015625 -25.664062 9.265625 -27 C 11.515625 -28.34375 13.953125 -29.015625 16.578125 -29.015625 C 19.203125 -29.015625 21.640625 -28.34375 23.890625 -27 C 26.140625 -25.664062 27.929688 -23.867188 29.265625 -21.609375 C 30.609375 -19.347656 31.28125 -16.914062 31.28125 -14.3125 C 31.28125 -11.65625 30.609375 -9.207031 29.265625 -6.96875 C 27.929688 -4.738281 26.140625 -2.96875 23.890625 -1.65625 C 21.640625 -0.34375 19.203125 0.3125 16.578125 0.3125 C 13.921875 0.3125 11.472656 -0.34375 9.234375 -1.65625 C 7.003906 -2.96875 5.234375 -4.738281 3.921875 -6.96875 C 2.609375 -9.207031 1.953125 -11.65625 1.953125 -14.3125 Z M 7.796875 -14.3125 C 7.796875 -12.644531 8.191406 -11.109375 8.984375 -9.703125 C 9.773438 -8.304688 10.851562 -7.195312 12.21875 -6.375 C 13.59375 -5.550781 15.109375 -5.140625 16.765625 -5.140625 C 18.378906 -5.140625 19.847656 -5.550781 21.171875 -6.375 C 22.503906 -7.195312 23.546875 -8.300781 24.296875 -9.6875 C 25.046875 -11.082031 25.421875 -12.625 25.421875 -14.3125 C 25.421875 -16.03125 25.03125 -17.585938 24.25 -18.984375 C 23.476562 -20.390625 22.421875 -21.503906 21.078125 -22.328125 C 19.742188 -23.148438 18.253906 -23.5625 16.609375 -23.5625 C 14.972656 -23.5625 13.484375 -23.148438 12.140625 -22.328125 C 10.804688 -21.503906 9.75 -20.390625 8.96875 -18.984375 C 8.1875 -17.585938 7.796875 -16.03125 7.796875 -14.3125 Z M 7.796875 -14.3125 "/></g></g></g><g fill="#000000" fill-opacity="1"><g transform="translate(210.017191, 197.290036)"><g><path d="M 19.03125 -21.765625 C 16.53125 -23.140625 14.359375 -23.828125 12.515625 -23.828125 C 11.265625 -23.828125 10.296875 -23.578125 9.609375 -23.078125 C 8.921875 -22.585938 8.578125 -21.847656 8.578125 -20.859375 C 8.578125 -19.953125 9.078125 -19.15625 10.078125 -18.46875 C 11.078125 -17.78125 12.410156 -17.125 14.078125 -16.5 C 15.429688 -16 16.585938 -15.429688 17.546875 -14.796875 C 18.515625 -14.160156 19.316406 -13.28125 19.953125 -12.15625 C 20.585938 -11.039062 20.90625 -9.628906 20.90625 -7.921875 C 20.90625 -6.429688 20.519531 -5.054688 19.75 -3.796875 C 18.988281 -2.535156 17.863281 -1.535156 16.375 -0.796875 C 14.894531 -0.0546875 13.128906 0.3125 11.078125 0.3125 C 9.359375 0.3125 7.65625 0.0625 5.96875 -0.4375 C 4.28125 -0.945312 2.707031 -1.722656 1.25 -2.765625 L 3.75 -7.171875 C 4.726562 -6.441406 5.851562 -5.84375 7.125 -5.375 C 8.40625 -4.914062 9.550781 -4.6875 10.5625 -4.6875 C 11.757812 -4.6875 12.800781 -4.9375 13.6875 -5.4375 C 14.570312 -5.945312 15.015625 -6.773438 15.015625 -7.921875 C 15.015625 -9.398438 13.625 -10.6875 10.84375 -11.78125 C 9.207031 -12.425781 7.84375 -13.046875 6.75 -13.640625 C 5.65625 -14.242188 4.710938 -15.101562 3.921875 -16.21875 C 3.128906 -17.34375 2.734375 -18.75 2.734375 -20.4375 C 2.734375 -22.90625 3.546875 -24.894531 5.171875 -26.40625 C 6.796875 -27.914062 8.957031 -28.734375 11.65625 -28.859375 C 13.789062 -28.859375 15.570312 -28.617188 17 -28.140625 C 18.4375 -27.660156 19.828125 -26.976562 21.171875 -26.09375 Z M 19.03125 -21.765625 "/></g></g></g><g fill="#000000" fill-opacity="1"><g transform="translate(263.947149, 197.290036)"><g><path d="M 23.28125 -28.703125 L 23.28125 -23.25 L 9.359375 -23.25 L 9.359375 -17.125 L 21.6875 -17.125 L 21.6875 -11.65625 L 9.359375 -11.65625 L 9.359375 -5.453125 L 23.828125 -5.453125 L 23.828125 0 L 3.703125 0 L 3.703125 -28.703125 Z M 23.28125 -28.703125 "/></g></g></g><g fill="#000000" fill-opacity="1"><g transform="translate(321.11313, 197.290036)"><g><path d="M 21.09375 -28.703125 L 21.09375 -23.25 L 14.125 -23.25 L 14.125 0 L 8.46875 0 L 8.46875 -23.25 L 1.75 -23.25 L 1.75 -28.703125 Z M 21.09375 -28.703125 "/></g></g></g><g fill="#000000" fill-opacity="1"><g transform="translate(176.697563, 251.290032)"><g><path d="M 13.0625 -16.34375 L 13.0625 -11.5 L 17.75 -11.5 L 17.75 -6.78125 L 13.0625 -6.78125 L 13.0625 -2.03125 L 8.109375 -2.03125 L 8.109375 -6.78125 L 3.4375 -6.78125 L 3.4375 -11.5 L 8.109375 -11.5 L 8.109375 -16.34375 Z M 13.0625 -16.34375 "/></g></g></g></svg>